<?xml version="1.0" encoding="UTF-8" standalone="no"?>
<!DOCTYPE svg PUBLIC "-//W3C//DTD SVG 1.1//EN" "http://www.w3.org/Graphics/SVG/1.1/DTD/svg11.dtd">
<svg width="100%" height="100%" viewBox="0 0 1075 650" version="1.1" xmlns="http://www.w3.org/2000/svg" xmlns:xlink="http://www.w3.org/1999/xlink" xml:space="preserve" xmlns:serif="http://www.serif.com/" style="fill-rule:evenodd;clip-rule:evenodd;stroke-linecap:round;stroke-linejoin:round;stroke-miterlimit:1.5;">
    <g id="logo" transform="matrix(1.14746,0,0,1.14654,-89.4367,-46.6875)">
        <g id="Cow">
            <path d="M598.171,230.201C589.673,229.56 630.72,213.366 644.029,225.712C644.831,238.219 632.003,254.253 603.462,251.206" style="fill:none;stroke:white;stroke-width:0.87px;"/>
            <path d="M595.543,247.187L600.93,245.894C604.666,213.929 640.223,226.356 638.499,229.732" style="fill:none;stroke:white;stroke-width:0.87px;"/>
            <path d="M584.624,229.229C584.624,229.229 598.416,238.065 591.736,262.919C589.293,269.384 587.785,275.059 590.012,282.098" style="fill:none;stroke:white;stroke-width:0.87px;"/>
            <path d="M585.845,247.331C585.845,247.331 589.579,240.124 592.022,240.028" style="fill:none;stroke:white;stroke-width:0.87px;"/>
            <path d="M593.316,245.966C593.316,245.966 586.923,249.917 589.078,257.819C591.305,257.531 591.161,258.322 592.957,256.526" style="fill:white;stroke:white;stroke-width:0.87px;"/>
            <path d="M523.091,203.264C523.091,203.264 565.381,198.013 577.728,209.237" style="fill:none;stroke:white;stroke-width:0.87px;"/>
            <path d="M592.118,210.039C592.118,210.039 631.963,208.355 638.136,192.641C641.904,207.593 624.187,219.9 598.572,222.385" style="fill:none;stroke:white;stroke-width:0.87px;"/>
            <path d="M552.299,295.244C553.951,282.529 623.055,285.331 606.749,297.758" style="fill:none;stroke:white;stroke-width:0.87px;"/>
            <path d="M557.974,299.841C557.974,289.713 564.545,291.698 564.689,298.163C565.338,299.617 566.304,299.792 567.223,299.792" style="fill:none;stroke:white;stroke-width:0.87px;"/>
            <g transform="matrix(1,0,0,1.01302,36.2269,-5.6968)">
                <path d="M557.974,299.841C557.974,289.713 564.545,291.698 564.689,298.163C565.338,299.617 566.304,299.792 567.223,299.792" style="fill:none;stroke:white;stroke-width:0.87px;"/>
            </g>
            <path d="M480.315,310.284C467.408,308.787 483.683,276.051 490.23,258.28" style="fill:none;stroke:white;stroke-width:0.87px;"/>
            <path d="M491.726,277.547C491.726,297.189 513.426,319.824 512.117,336.847" style="fill:none;stroke:white;stroke-width:0.87px;"/>
            <path d="M495.655,262.208C495.655,262.208 490.791,288.21 516.419,306.543C527.83,318.141 527.082,314.961 531.01,320.011C534.003,325.436 535.126,329.926 541.299,329.739" style="fill:none;stroke:white;stroke-width:0.87px;"/>
            <path d="M534.003,286.34C543.544,294.196 539.802,315.148 545.227,318.141" style="fill:none;stroke:white;stroke-width:0.87px;"/>
            <path d="M560.567,331.235C558.509,340.214 548.22,343.956 547.846,352.748" style="fill:none;stroke:white;stroke-width:0.87px;"/>
            <path d="M554.955,325.436C565.243,323.753 580.208,325.81 589.936,323.378" style="fill:none;stroke:white;stroke-width:0.87px;"/>
            <path d="M568.61,315.522C568.61,315.522 583.201,309.91 596.857,315.709C600.973,318.141 602.282,318.889 605.836,317.392" style="fill:none;stroke:white;stroke-width:0.87px;"/>
            <path d="M457.868,233.587C453.565,227.975 484.992,212.823 508.749,234.522" style="fill:none;stroke:white;stroke-width:0.87px;"/>
            <path d="M468.904,245.372C468.904,245.372 478.632,255.474 499.396,252.855" style="fill:none;stroke:white;stroke-width:0.87px;"/>
            <path d="M464.602,232.727C465.388,231.267 468.418,229.359 469.765,228.461C473.806,228.461 490.866,227.339 492.437,228.125C494.863,229.67 504.211,242.157 504.222,245.746" style="fill:none;stroke:white;stroke-width:0.87px;"/>
            <path d="M497.264,207.809C499.957,207.585 473.132,211.85 467.296,187.382C463.255,201.973 478.856,217.35 497.264,220.717" style="fill:none;stroke:white;stroke-width:0.87px;"/>
            <path d="M505.682,209.381C505.682,209.381 512.865,209.83 511.181,223.074" style="fill:none;stroke:white;stroke-width:0.87px;"/>
            <path d="M508.847,228.834C508.847,228.834 512.366,236.089 516.389,238.029" style="fill:none;stroke:white;stroke-width:0.87px;"/>
            <path d="M528.098,240.399C528.098,240.399 529.801,244.594 533.791,246.132C537.73,247.65 541.018,250.38 541.531,251.031" style="fill:none;stroke:white;stroke-width:0.87px;"/>
            <path d="M539.088,260.8C539.088,260.8 523.318,237.495 513.947,252.721C516.748,259.617 524.826,258.742 531.562,252.552" style="fill:white;stroke:white;stroke-width:0.87px;"/>
        </g>
        <g id="Sheep">
            <path d="M633.877,279.832C617.901,268.511 665.196,260.466 667.782,255.121" style="fill:none;stroke:white;stroke-width:0.87px;"/>
            <path d="M643.761,282.188C651.462,281.958 666.518,263.052 668.299,258.627" style="fill:none;stroke:white;stroke-width:0.87px;"/>
            <path d="M663.949,265.262C663.949,265.262 680.31,264.373 683.355,265.235" style="fill:none;stroke:white;stroke-width:0.87px;"/>
            <path d="M695.251,266.097C691.861,266.327 733.351,264.258 709.503,271.959" style="fill:none;stroke:white;stroke-width:0.87px;"/>
            <path d="M697.435,271.442C699.044,272.763 706.4,273.453 706.285,284.429C709.962,287.188 745.477,316.783 746.798,320.92" style="fill:none;stroke:white;stroke-width:0.87px;"/>
            <path d="M712.003,334.066C717.462,333.779 763.291,339.094 734.702,322.213" style="fill:none;stroke:white;stroke-width:0.87px;"/>
            <path d="M682.982,290.248C679.462,286.943 678.241,281.7 667.538,282.059C660.067,287.446 670.402,298.351 680.212,286.865" style="fill:white;stroke:white;stroke-width:0.87px;"/>
            <path d="M616.264,262.685C616.264,262.685 637.814,259.237 643.92,264.912" style="fill:none;stroke:white;stroke-width:0.87px;"/>
            <path d="M631.205,294.363C631.205,294.363 644.925,296.59 642.986,305.785C647.799,309.089 650.456,309.951 649.379,320.008C654.91,322.594 657.999,328.843 655.126,335.523" style="fill:none;stroke:white;stroke-width:0.87px;"/>
            <path d="M640.4,311.89C640.4,311.89 650.528,315.267 646.865,324.461" style="fill:none;stroke:white;stroke-width:0.87px;"/>
            <path d="M620.071,308.802C620.071,308.802 628.404,309.448 627.326,319.074C633.001,323.527 633.719,320.87 632.857,331.573C637.096,332.794 638.389,332.866 639.825,338.397C644.423,337.463 650.241,335.883 649.595,343.641" style="fill:none;stroke:white;stroke-width:0.87px;"/>
            <path d="M638.873,335.486C638.873,335.486 640.328,344.574 638.245,350.249" style="fill:none;stroke:white;stroke-width:0.87px;"/>
            <path d="M649.495,340.845C649.495,340.845 660.369,338.828 660.8,350.393" style="fill:none;stroke:white;stroke-width:0.87px;"/>
            <path d="M673.156,354.487C673.156,354.487 676.893,344.721 664.895,338.612C679.194,339.185 697.32,340.408 703.144,341.082C707.373,343.105 711.664,346.354 723.311,346.17" style="fill:none;stroke:white;stroke-width:0.87px;"/>
        </g>
        <g id="Pig">
            <path d="M368.725,305.579C368.725,290.652 378.878,296.506 380.418,280.938C382.935,255.498 387.209,244.307 394.315,243.96C399.254,244.634 403.182,256.98 401.162,267.867" style="fill:none;stroke:white;stroke-width:0.87px;"/>
            <path d="M420.13,283.917C420.13,283.917 419.794,279.54 420.13,277.071" style="fill:none;stroke:white;stroke-width:0.87px;"/>
            <path d="M437.528,261.245C437.528,261.245 449.425,245.868 453.129,249.46C448.527,257.541 459.526,286.723 435.844,295.927" style="fill:none;stroke:white;stroke-width:0.87px;"/>
            <path d="M450.938,277.419C450.938,277.419 459.526,280.213 464.353,279.54" style="fill:none;stroke:white;stroke-width:0.87px;"/>
            <path d="M432.589,281.785C431.018,276.173 435.844,268.092 445.16,261.806" style="fill:none;stroke:white;stroke-width:0.87px;"/>
            <path d="M423.273,337.792C431.018,332.292 436.517,325.446 437.191,308.722" style="fill:none;stroke:white;stroke-width:0.87px;"/>
            <path d="M436.596,315.434C436.596,315.434 442.466,333.752 445.272,335.323" style="fill:none;stroke:white;stroke-width:0.87px;"/>
            <path d="M401.737,307.137C401.737,307.137 410.886,301.85 414.058,307.045C413.009,306.575 411.903,306.673 411.601,307.11C411.24,308.782 408.715,313.716 401.737,307.137Z" style="fill:white;stroke:white;stroke-width:0.87px;"/>
            <path d="M406.527,313.675C407.784,314.124 410.478,314.124 411.735,313.406" style="fill:none;stroke:white;stroke-width:0.87px;"/>
            <path d="M362.619,343.217C362.619,343.217 366.929,351.657 392.52,348.874C397.009,353.722 412.004,352.914 418.559,352.465" style="fill:none;stroke:white;stroke-width:0.87px;"/>
            <path d="M364.346,345.047C364.346,345.047 393.956,342.139 397.907,335.495" style="fill:none;stroke:white;stroke-width:0.87px;"/>
            <path d="M374.195,343.733C374.112,343.217 374.651,332.442 370.162,331.993C365.941,330.017 361.991,325.438 358.668,325.348C356.154,327.144 353.46,327.952 350.677,327.144C348.252,331.364 347.534,337.56 350.497,339.984C354.179,340.702 366.467,345.058 374.195,343.733" style="fill:none;stroke:white;stroke-width:0.87px;"/>
            <path d="M398.715,345.641C398.715,345.641 405.18,345.731 407.784,343.127" style="fill:none;stroke:white;stroke-width:0.87px;"/>
            <path d="M362.353,336.018C362.353,336.018 366.398,334.869 367.18,337.581C364.927,338.501 362.72,337.26 362.353,336.018Z" style="fill:none;stroke:white;stroke-width:0.87px;"/>
            <path d="M366.56,314.338C366.56,314.338 360.387,317.48 360.948,321.409" style="fill:none;stroke:white;stroke-width:0.87px;"/>
            <path d="M397.875,273.595C397.875,273.595 412.691,270.452 413.925,272.921" style="fill:none;stroke:white;stroke-width:0.87px;"/>
            <path d="M413.476,266.187C413.476,266.187 419.65,264.167 423.241,265.962C425.374,264.391 427.057,262.82 429.19,263.493" style="fill:none;stroke:white;stroke-width:0.87px;"/>
            <path d="M350.21,333.932C350.21,333.932 353.584,331.352 355.842,334.392C353.701,335.599 351.771,335.379 350.21,333.932Z" style="fill:none;stroke:white;stroke-width:0.87px;"/>
        </g>
        <g id="O">
            <path d="M401.537,412.707C369.758,412.707 368.781,369.09 402.054,369.09C435.327,369.09 436.246,412.707 401.537,412.707Z" style="fill:none;stroke:white;stroke-width:0.87px;"/>
            <path d="M402.111,376.905C384.814,376.905 385.044,405.696 401.249,405.696C420.328,405.696 419.811,376.905 402.111,376.905Z" style="fill:none;stroke:white;stroke-width:0.87px;"/>
            <g id="o-fill" serif:id="o fill">
                <g transform="matrix(0.986488,0,0,0.987277,7.04923,3.94984)">
                    <path d="M375.646,390.983C375.556,393.677 386.64,392.551 386.64,392.551C386.64,392.551 385.75,378.64 400.626,377.037C415.98,379.944 413.859,390.826 414.547,393.345C415.234,395.858 425.205,393.333 425.205,393.333C425.806,393.108 427.59,371.612 399.853,370.038C378.302,370.555 375.736,388.29 375.646,390.983Z" style="fill:white;stroke:white;stroke-width:0.88px;"/>
                </g>
                <g transform="matrix(-0.986413,0.0200021,-0.0197233,-0.974222,804.929,765.102)">
                    <path d="M375.646,390.983C375.556,393.677 386.64,392.551 386.64,392.551C386.64,392.551 385.419,378.104 401.498,376.692C415.796,379.077 413.579,390.273 414.547,393.345C415.33,395.83 425.205,393.333 425.205,393.333C425.205,393.333 427.06,371.811 399.853,370.038C395.295,370.148 391.585,371.027 388.569,372.372C377.327,377.385 375.717,388.86 375.646,390.983Z" style="fill:white;stroke:white;stroke-width:0.89px;"/>
                </g>
            </g>
        </g>
        <g id="a">
            <path d="M440.342,399.489C443.423,410.753 466.225,403.765 460.708,391.168C456.847,395.582 441.262,390.617 440.342,399.489Z" style="fill:none;stroke:white;stroke-width:0.87px;"/>
            <g transform="matrix(0.986488,0,0,0.987277,7.04923,3.94984)">
                <path d="M459.322,387.915L459.685,391.87C459.685,391.87 463.405,391.894 457.263,393.317C454.499,393.958 447.909,394.877 443.216,395.12C442.433,391.76 440.532,390.394 440.532,390.394C445.837,389.088 452.038,388.231 459.322,387.915Z" style="fill:white;stroke:white;stroke-width:0.88px;"/>
            </g>
            <g transform="matrix(0.986488,0,0,0.987277,7.04923,3.94984)">
                <path d="M441.201,395.12C441.201,395.12 431.725,406.508 451.101,406.345C451.167,409.901 451.46,412.445 451.46,412.445C451.386,413.036 431.364,419.087 427.928,402.374C426.808,396.922 433.519,392.09 439.978,390.589C440.402,392.481 441.201,395.12 441.201,395.12Z" style="fill:white;stroke:white;stroke-width:0.88px;"/>
            </g>
            <path d="M442.503,382.341L430.044,382.295C429.814,369.975 460.571,361.745 473.949,378.893" style="fill:none;stroke:white;stroke-width:0.87px;"/>
            <path d="M473.949,378.893L473.949,402.156L467.512,402.156L467.512,412.684L465.168,412.684C462.639,406.477 459.793,411.515 445.859,412.73C433.213,416.61 409.448,388.878 457.031,386.717" style="fill:none;stroke:white;stroke-width:0.87px;"/>
            <path d="M457.031,386.717C461.137,386.717 462.772,386.456 462.772,381.243C462.772,375.147 442.771,373.873 442.503,382.341" style="fill:none;stroke:white;stroke-width:0.87px;"/>
        </g>
        <path id="k" d="M481.822,356.059L492.957,356.059L492.957,385.582L512.495,370.569L525.569,370.569L506.82,385.798L526.144,410.939L512.567,410.939L498.057,391.76L492.166,396.573L492.166,410.293L480.386,410.293L481.822,356.059Z" style="fill:white;stroke:white;stroke-width:0.87px;"/>
        <path id="l" d="M530.885,355.987L542.378,356.131L542.378,411.299L530.31,411.299L530.885,355.987Z" style="fill:white;stroke:white;stroke-width:0.87px;"/>
        <g id="e">
            <path d="M557.009,387.549L581.774,387.794C581.774,374.227 557.009,373.982 557.009,387.549" style="fill:none;stroke:white;stroke-width:0.87px;"/>
            <path d="M557.009,392.861L592.925,393.486C592.925,359.698 545.485,365.304 545.485,391.063C545.485,399.155 549.654,409.371 555.62,409.371C555.756,406.637 555.745,404.791 555.745,404.791L561.436,404.523C561.436,404.523 554.491,399.021 557.009,392.861" style="fill:none;stroke:white;stroke-width:0.87px;"/>
            <path d="M567.696,406.465L567.696,413.696C572.516,413.696 584.214,413.72 593.105,399.903L581.555,399.903C580.383,401.577 579.413,406.465 567.696,406.465Z" style="fill:none;stroke:white;stroke-width:0.87px;"/>
        </g>
        <g id="i">
            <path d="M598.362,372.348L609.211,372.348L609.211,411.133L598.237,411.133L598.362,372.348Z" style="fill:white;stroke:white;stroke-width:0.87px;"/>
            <g transform="matrix(1,0,0,1.18182,8.88178e-16,-64.82)">
                <path d="M598.985,356.51L608.962,356.51L608.962,363.369L599.235,363.369L598.985,356.51Z" style="fill:white;stroke:white;stroke-width:0.8px;"/>
            </g>
        </g>
        <g id="g">
            <path d="M638.959,378.218C623.673,378.218 620.053,405.974 639.074,405.974C656.257,405.974 654.245,378.218 638.959,378.218Z" style="fill:none;stroke:white;stroke-width:0.87px;"/>
            <g transform="matrix(0.986488,0,0,0.987277,7.04923,3.94984)">
                <path d="M655.114,374.458L665.186,374.378L665.43,415.64L646.973,428.847C646.973,428.847 644.464,424.357 643.959,424.292C643.01,424.169 653.352,421.793 654.066,418.761C652.792,414.172 654.809,374.572 655.114,374.458Z" style="fill:white;stroke:white;stroke-width:0.88px;"/>
            </g>
            <path d="M652.809,373.103L663.67,373.103L663.67,414.939C663.67,414.939 647.561,424.444 644.993,428.271C644.913,425.816 644.074,423.572 641.61,423.131C639.146,422.69 651.577,420.961 651.577,416.805C651.577,412.649 651.54,411.03 651.54,406.654C651.48,410.364 614.835,422.684 614.835,390.729C614.835,368.147 646.118,367.566 652.853,377.53C652.853,374.611 652.809,373.103 652.809,373.103Z" style="fill:none;stroke:white;stroke-width:0.87px;"/>
            <path d="M614.1,416.82C614.1,416.82 616.307,412.131 625.042,414.2C620.628,410.844 620.674,411.074 616.996,407.993C614.376,410.2 612.353,412.269 614.1,416.82Z" style="fill:none;stroke:white;stroke-width:0.87px;"/>
        </g>
        <path id="h" d="M670.739,357.239L682.14,357.239C682.14,357.239 682.14,380.455 682.14,378.157C682.14,369.169 713.862,369.652 713.862,381.651L713.862,414.476L703.104,414.476C703.104,414.476 703.326,398.318 703.326,386.195C703.326,381.536 697.511,379.444 692.852,379.444C688.193,379.444 683.692,381.872 682.075,386.241C682.075,394.9 681.845,407.997 681.635,413.556L670.141,413.556L670.739,357.239Z" style="fill:white;stroke:white;stroke-width:0.87px;"/>
        <path d="M339.515,420.341C339.515,420.341 338.852,450.557 338.852,455.384C338.852,460.212 336.996,418.149 355.73,418.149C372.51,418.149 367.894,443.297 367.894,455.337C369.173,443.458 365.369,418.766 384.678,418.766C402.427,418.766 397.242,442.139 397.242,455.655" style="fill:none;stroke:white;stroke-width:1.82px;"/>
        <g transform="matrix(1,0,0,1,239.161,0.738741)">
            <path d="M339.515,420.341C339.515,420.341 338.852,450.557 338.852,455.384C338.852,460.212 335.705,419.62 354.438,419.441C373.802,419.257 367.894,443.297 367.894,455.337C369.173,443.458 365.369,418.766 384.678,418.766C402.427,418.766 397.242,442.139 397.242,455.655" style="fill:none;stroke:white;stroke-width:1.82px;"/>
        </g>
        <path d="M407.52,429.991C407.52,416.772 436.204,417.52 436.204,426C436.204,428.341 436.995,434.369 433.011,436.027C422.093,438.339 402.435,438.111 402.435,449.926C402.435,466.247 437.459,453.977 435.965,447.885C436.358,455.365 436.809,458.755 443.006,458.259" style="fill:none;stroke:white;stroke-width:1.82px;"/>
        <path d="M436.146,430.189L435.965,447.885" style="fill:none;stroke:white;stroke-width:1.82px;"/>
        <path d="M448.513,421.18L447.552,458.52C447.552,458.52 447.358,440.149 451.998,427.836C453.988,422.557 461.059,421.032 467.22,421.032" style="fill:none;stroke:white;stroke-width:1.82px;"/>
        <path d="M472.664,406.712L471.981,442.509L504.647,420.923" style="fill:none;stroke:white;stroke-width:1.82px;"/>
        <path d="M484.843,434.009L506.122,458.842" style="fill:none;stroke:white;stroke-width:1.82px;"/>
        <path d="M471.981,442.509L471.765,458.662" style="fill:none;stroke:white;stroke-width:1.82px;"/>
        <path d="M548.107,447.595C548.107,457.921 510.17,470.155 510.17,437.83C510.17,413.362 548.556,415.158 548.556,438.391C535.761,438.391 510.17,437.83 510.17,437.83" style="fill:none;stroke:white;stroke-width:1.82px;"/>
        <path d="M561.463,410.107C561.463,410.107 561.226,450.572 561.226,452.345C561.226,454.118 562.712,458.482 570.33,458.482" style="fill:none;stroke:white;stroke-width:1.82px;"/>
        <path d="M553.045,421.555L561.434,421.329L572.687,421.329" style="fill:none;stroke:white;stroke-width:1.82px;"/>
        <g transform="matrix(1,0,0,1,138.552,1.83893)">
            <path d="M548.107,447.595C548.107,457.921 510.17,470.155 510.17,437.83C510.17,413.362 548.556,415.158 548.556,438.391C535.761,438.391 510.17,437.83 510.17,437.83" style="fill:none;stroke:white;stroke-width:1.82px;"/>
        </g>
        <g transform="matrix(1,0,0,1,289.789,2.22204)">
            <path d="M407.52,429.991C407.52,416.772 436.204,417.52 436.204,426C436.204,428.341 436.995,434.369 433.011,436.027C422.093,438.339 402.435,438.111 402.435,449.926C402.435,466.247 437.459,453.977 435.965,447.885C436.358,455.365 436.809,458.755 443.006,458.259" style="fill:none;stroke:white;stroke-width:1.82px;"/>
        </g>
        <g transform="matrix(1,0,0,1,289.403,5.82327)">
            <path d="M436.146,430.189L435.965,447.885" style="fill:none;stroke:white;stroke-width:1.82px;"/>
        </g>
        <g transform="matrix(1,0,0,1,181.078,2.15499)">
            <path d="M561.463,410.107C561.463,410.107 561.226,450.572 561.226,452.345C561.226,454.118 562.712,458.482 570.33,458.482" style="fill:none;stroke:white;stroke-width:1.82px;"/>
        </g>
        <g transform="matrix(1,0,0,1,181.078,2.15499)">
            <path d="M553.045,421.555L561.434,421.329L572.687,421.329" style="fill:none;stroke:white;stroke-width:1.82px;"/>
        </g>
        <g transform="matrix(0.986488,0,0,0.987277,7.04923,3.94984)">
            <path d="M429.131,382.771L440.652,383.008C440.579,383.203 441.231,379.593 445.488,377.805C447.176,377.096 448.766,376.548 451.836,376.856C462.732,377.949 462.684,380.508 462.515,385.073C466.806,385.015 473.01,386.314 473.01,386.314L473.063,380.167C473.063,380.167 466.347,370.728 452.192,370.343C437.824,369.952 429.379,378.146 429.131,382.771Z" style="fill:white;stroke:white;stroke-width:0.88px;"/>
        </g>
        <g transform="matrix(0.986488,0,0,0.987277,7.04923,3.94984)">
            <path d="M459.209,402.123C463.791,403.239 468.372,403.599 472.954,402.877L472.78,386.349L462.167,385.189L459.847,387.973L459.847,391.046C459.847,391.046 463.849,395.743 459.209,402.123" style="fill:white;stroke:white;stroke-width:0.88px;"/>
        </g>
        <g transform="matrix(0.986488,0,0,0.987277,7.04923,3.94984)">
            <path d="M451.289,406.391L450.809,412.845C450.809,413.859 464.313,408.344 464.545,413.54C465.415,414.12 466.623,413.474 466.623,413.474L466.444,401.798L458.862,402.181C455.513,404.881 452.472,406.475 451.289,406.391Z" style="fill:white;stroke:white;stroke-width:0.88px;"/>
        </g>
        <g transform="matrix(0.986488,0,0,0.987277,7.04923,3.94984)">
            <path d="M557.094,389.162L546.911,388.424C546.101,388.604 548.776,371.078 570.218,371.023C591.191,370.968 592.904,388.961 592.904,388.961L583.018,389.381C583.031,389.637 583.243,377.765 569.493,378.11C556.628,378.432 557.652,388.696 557.094,389.162Z" style="fill:white;stroke:white;stroke-width:0.88px;"/>
        </g>
        <g transform="matrix(0.986488,0,0,0.987277,7.04923,3.94984)">
            <path d="M557.349,389.058L546.813,388.961C545.571,386.565 544.654,406.057 555.544,410.372C555.641,406.47 556.106,405.697 556.106,405.697L560.996,405.431C561.328,405.521 554.699,402.978 557.349,389.058Z" style="fill:white;stroke:white;stroke-width:0.88px;"/>
        </g>
        <g transform="matrix(0.986488,0,0,0.987277,7.04923,3.94984)">
            <path d="M556.697,388.683L556.642,393.539C569.016,393.767 581.822,394.101 593.49,394.328L592.972,388.844C581.067,389.066 568.368,389.046 556.697,388.683Z" style="fill:white;stroke:white;stroke-width:0.88px;"/>
        </g>
        <g transform="matrix(0.986488,0,0,0.987277,7.04923,3.94984)">
            <path d="M568.891,408.303L568.626,414.8C568.626,414.8 585.989,414.736 593.842,401.373C587.843,401.324 582.787,401.152 582.787,401.152C582.787,401.152 580.499,408.01 568.891,408.303Z" style="fill:white;stroke:white;stroke-width:0.88px;"/>
        </g>
        <g transform="matrix(0.986488,0,0,0.987277,7.04923,3.94984)">
            <path d="M654.359,378.621C657.13,384.061 655.238,391.339 653.451,397.492C653.451,397.492 654.787,379.124 640.556,378.523C629.777,379.499 627.436,388.083 626.948,392.619C627.049,394.277 616.315,393.009 616.315,393.009C615.968,392.612 615.257,372.173 640.263,372.817C645.419,371.983 651.879,375.808 654.359,378.621Z" style="fill:white;stroke:white;stroke-width:0.88px;"/>
        </g>
        <g transform="matrix(0.986488,0,0,0.987277,7.04923,3.94984)">
            <path d="M616.706,393.643C616.706,393.643 624.997,394.277 626.948,393.399C626.012,406.701 646.663,416.704 653.188,396.326C654.31,396.423 654.31,396.716 654.31,396.716L653.676,407.69C654.848,408.312 619.306,425.86 616.706,393.643Z" style="fill:white;stroke:white;stroke-width:0.88px;"/>
        </g>
        <g transform="matrix(0.986488,0,0,0.987277,7.04923,3.94984)">
            <path d="M615.34,417.006C615.34,417.006 619.488,413.723 624.999,414.942C623.146,412.65 618.387,409.7 618.387,409.7C617.91,409.223 613.457,413.562 615.34,417.006Z" style="fill:white;stroke:white;stroke-width:0.88px;"/>
        </g>
        <g transform="matrix(0.728163,0,0,0.719966,154.967,91.0089)">
            <path d="M389.732,415.304L397.706,413.221L399.143,420.161L391.672,425.873L389.732,415.304Z" style="fill:white;"/>
        </g>
    </g>
</svg>
